<svg id="visual" viewBox="0 0 7680 4320" width="7680" height="4320" xmlns="http://www.w3.org/2000/svg" xmlns:xlink="http://www.w3.org/1999/xlink" version="1.1"><rect x="0" y="0" width="7680" height="4320" fill="#ffffff"></rect><path d="M0 3714L142.2 3672.3C284.3 3630.7 568.7 3547.3 853.2 3454.3C1137.7 3361.3 1422.3 3258.7 1706.8 3277.7C1991.3 3296.7 2275.7 3437.3 2560 3431.2C2844.3 3425 3128.7 3272 3413.2 3316.5C3697.7 3361 3982.3 3603 4266.8 3589.8C4551.3 3576.7 4835.7 3308.3 5120 3298C5404.3 3287.7 5688.7 3535.3 5973.2 3553.3C6257.7 3571.3 6542.3 3359.7 6826.8 3256.3C7111.3 3153 7395.7 3158 7537.8 3160.5L7680 3163L7680 4321L7537.8 4321C7395.7 4321 7111.3 4321 6826.8 4321C6542.3 4321 6257.7 4321 5973.2 4321C5688.7 4321 5404.3 4321 5120 4321C4835.7 4321 4551.3 4321 4266.8 4321C3982.3 4321 3697.7 4321 3413.2 4321C3128.7 4321 2844.3 4321 2560 4321C2275.7 4321 1991.3 4321 1706.8 4321C1422.3 4321 1137.7 4321 853.2 4321C568.7 4321 284.3 4321 142.2 4321L0 4321Z" fill="#4cbfa6"></path><path d="M0 3814L142.2 3719.2C284.3 3624.3 568.7 3434.7 853.2 3359C1137.7 3283.3 1422.3 3321.7 1706.8 3414.8C1991.3 3508 2275.7 3656 2560 3680.5C2844.3 3705 3128.7 3606 3413.2 3497.3C3697.7 3388.7 3982.3 3270.3 4266.8 3289.2C4551.3 3308 4835.7 3464 5120 3574.3C5404.3 3684.7 5688.7 3749.3 5973.2 3778.3C6257.7 3807.3 6542.3 3800.7 6826.8 3759.3C7111.3 3718 7395.7 3642 7537.8 3604L7680 3566L7680 4321L7537.8 4321C7395.7 4321 7111.3 4321 6826.8 4321C6542.3 4321 6257.7 4321 5973.2 4321C5688.7 4321 5404.3 4321 5120 4321C4835.7 4321 4551.3 4321 4266.8 4321C3982.3 4321 3697.7 4321 3413.2 4321C3128.7 4321 2844.3 4321 2560 4321C2275.7 4321 1991.3 4321 1706.8 4321C1422.3 4321 1137.7 4321 853.2 4321C568.7 4321 284.3 4321 142.2 4321L0 4321Z" fill="#6dc9c1"></path><path d="M0 3737L142.2 3767.3C284.3 3797.7 568.7 3858.3 853.2 3850.5C1137.7 3842.7 1422.3 3766.3 1706.8 3716.3C1991.3 3666.3 2275.7 3642.7 2560 3673.3C2844.3 3704 3128.7 3789 3413.2 3778.5C3697.7 3768 3982.3 3662 4266.8 3659.8C4551.3 3657.7 4835.7 3759.3 5120 3814.8C5404.3 3870.3 5688.7 3879.7 5973.2 3836.8C6257.7 3794 6542.3 3699 6826.8 3709.3C7111.3 3719.7 7395.7 3835.3 7537.8 3893.2L7680 3951L7680 4321L7537.8 4321C7395.7 4321 7111.3 4321 6826.8 4321C6542.3 4321 6257.7 4321 5973.2 4321C5688.7 4321 5404.3 4321 5120 4321C4835.7 4321 4551.3 4321 4266.8 4321C3982.3 4321 3697.7 4321 3413.2 4321C3128.7 4321 2844.3 4321 2560 4321C2275.7 4321 1991.3 4321 1706.8 4321C1422.3 4321 1137.7 4321 853.2 4321C568.7 4321 284.3 4321 142.2 4321L0 4321Z" fill="#93d1d4"></path><path d="M0 3757L142.2 3781C284.3 3805 568.7 3853 853.2 3845.7C1137.7 3838.3 1422.3 3775.7 1706.8 3770C1991.3 3764.3 2275.7 3815.7 2560 3836.3C2844.3 3857 3128.7 3847 3413.2 3861.8C3697.7 3876.7 3982.3 3916.3 4266.8 3925.3C4551.3 3934.3 4835.7 3912.7 5120 3882.8C5404.3 3853 5688.7 3815 5973.2 3798.2C6257.7 3781.3 6542.3 3785.7 6826.8 3819.7C7111.3 3853.7 7395.7 3917.3 7537.8 3949.2L7680 3981L7680 4321L7537.8 4321C7395.7 4321 7111.3 4321 6826.8 4321C6542.3 4321 6257.7 4321 5973.2 4321C5688.7 4321 5404.3 4321 5120 4321C4835.7 4321 4551.3 4321 4266.8 4321C3982.3 4321 3697.7 4321 3413.2 4321C3128.7 4321 2844.3 4321 2560 4321C2275.7 4321 1991.3 4321 1706.8 4321C1422.3 4321 1137.7 4321 853.2 4321C568.7 4321 284.3 4321 142.2 4321L0 4321Z" fill="#b9d9df"></path><path d="M0 3952L142.2 3940.2C284.3 3928.3 568.7 3904.7 853.2 3941.2C1137.7 3977.7 1422.3 4074.3 1706.8 4127.7C1991.3 4181 2275.7 4191 2560 4169C2844.3 4147 3128.7 4093 3413.2 4039.8C3697.7 3986.7 3982.3 3934.3 4266.8 3913.7C4551.3 3893 4835.7 3904 5120 3907.3C5404.3 3910.7 5688.7 3906.3 5973.2 3938C6257.7 3969.7 6542.3 4037.3 6826.8 4047.5C7111.3 4057.7 7395.7 4010.3 7537.8 3986.7L7680 3963L7680 4321L7537.8 4321C7395.7 4321 7111.3 4321 6826.8 4321C6542.3 4321 6257.7 4321 5973.2 4321C5688.7 4321 5404.3 4321 5120 4321C4835.7 4321 4551.3 4321 4266.8 4321C3982.3 4321 3697.7 4321 3413.2 4321C3128.7 4321 2844.3 4321 2560 4321C2275.7 4321 1991.3 4321 1706.8 4321C1422.3 4321 1137.7 4321 853.2 4321C568.7 4321 284.3 4321 142.2 4321L0 4321Z" fill="#dce1e3"></path></svg>