<?xml version="1.0" encoding="utf-8"?>
<!-- Generator: Adobe Illustrator 26.0.3, SVG Export Plug-In . SVG Version: 6.00 Build 0)  -->
<svg version="1.0" id="katman_1" xmlns="http://www.w3.org/2000/svg" xmlns:xlink="http://www.w3.org/1999/xlink" x="0px" y="0px"
	 viewBox="0 0 600 450" style="enable-background:new 0 0 600 450;" xml:space="preserve">
<style type="text/css">
	.st0{fill:#CCE9FA;}
	.st1{fill:#149AD7;}
	.st2{fill:#252F63;}
	.st3{fill:#253C7E;}
</style>
<symbol  id="gt_PayPal" viewBox="-415.1 -415.1 830.1 830.1">
	<path class="st0" d="M-276.7-415.1h553.4c92.2,0,138.4,46.1,138.4,138.4v553.4c0,92.2-46.1,138.4-138.4,138.4h-553.4
		c-92.2,0-138.4-46.1-138.4-138.4v-553.4C-415.1-368.9-368.9-415.1-276.7-415.1L-276.7-415.1z"/>
	<path class="st1" d="M181.5-144.3c0,4.6-1.5,6.2-1.5,10.9C156.7-17.1,82.5,20.2-13.4,20.2h-49.5c-12.4,0-20.1,7.8-23.2,20.2
		l-24.8,161.4l-6.2,46.6c-1.5,6.2,4.6,12.4,10.8,14h89.7c10.8,0,18.5-7.8,20.1-18.6V239l17-105.5l1.5-6.2
		c1.5-10.9,10.8-18.6,20.1-18.6h12.4c85.1,0,148.5-35.7,170.1-135c7.7-41.9,4.6-77.6-17-100.9C198.5-133.4,192.3-139.6,181.5-144.3
		L181.5-144.3z"/>
	<path class="st2" d="M158.3-153.6c-4.6,0-6.2-1.5-10.8-1.5s-7.7-1.6-10.8-1.6c-13.9-1.5-29.4-4.6-43.3-4.6H-36.6
		c-10.8,0-18.5,7.8-20.1,18.6L-83,35.7v4.7c1.5-12.4,12.4-20.2,23.2-20.2h49.5c95.9,0,171.7-38.8,193.3-153.6
		c0-4.7,1.5-6.2,1.5-10.9c-6.2-1.6-12.4-6.2-18.5-7.8L158.3-153.6L158.3-153.6z"/>
	<path class="st3" d="M-56.7-141.2c1.5-10.9,10.8-18.6,20.1-18.6H93.3c13.9,0,29.4,0,43.3,4.7c4.6,0,7.7,1.5,10.8,1.5
		c4.6,0,6.2,1.5,10.8,1.5l4.6,1.5c6.2,1.5,12.4,4.6,18.6,7.8c6.2-41.9,0-71.4-23.2-96.2c-24.7-29.5-71.1-41.9-128.3-41.9h-167
		c-12.4,0-20.1,7.8-23.2,20.2l-68,443.7c-1.5,7.8,4.6,14,12.4,17.1h105.1l26.3-164.5C-83,35.7-56.7-141.2-56.7-141.2z"/>
</symbol>
<use xlink:href="#gt_PayPal"  width="830.1" height="830.1" x="-415.1" y="-415.1" transform="matrix(0.3429 0 0 0.3429 300 225)" style="overflow:visible;"/>
</svg>
